<svg xmlns="http://www.w3.org/2000/svg" width="54" height="54" viewBox="0 0 54 54">
    <path fill="#000" fill-rule="nonzero" d="M17.516 47.585a22.533 22.533 0 0 0 9.475 2.077c12.5 0 22.67-10.168 22.67-22.666 0-6.34-2.617-12.078-6.827-16.196l2.616-3.499C50.708 12.231 54 19.236 54 26.996 54 41.886 41.884 54 26.99 54c-4.852 0-9.409-1.288-13.349-3.537l-3.823 2.84 22.015-29.274 7.44 7.394-21.757 16.162zM38.21 7.292a22.566 22.566 0 0 0-11.214-2.968c-12.494 0-22.66 10.136-22.66 22.594 0 6.911 3.13 13.107 8.05 17.255l-2.6 3.468C3.812 42.7 0 35.244 0 26.918 0 12.075 12.11 0 26.996 0a26.896 26.896 0 0 1 14.95 4.516l3.288-2.442-22.015 29.274-7.44-7.395L38.21 7.292z" />
</svg>
