<svg xmlns="http://www.w3.org/2000/svg" xmlns:xlink="http://www.w3.org/1999/xlink" width="30px"
  height="30px" viewBox="0 0 30 30" version="1.1">
  <g id="surface1">
    <path style=" stroke:none;fill-rule:nonzero;fill:#fff;fill-opacity:1;"
      d="M 9.730469 26.4375 C 11.382812 27.199219 13.175781 27.59375 14.996094 27.589844 C 21.9375 27.589844 27.589844 21.941406 27.589844 14.996094 C 27.589844 11.476562 26.136719 8.289062 23.796875 6 L 25.25 4.054688 C 28.171875 6.796875 30 10.6875 30 14.996094 C 30 23.269531 23.269531 30 14.996094 30 C 12.300781 30 9.765625 29.285156 7.578125 28.035156 L 5.453125 29.613281 L 17.683594 13.347656 L 21.816406 17.457031 Z M 21.226562 4.050781 C 19.332031 2.96875 17.183594 2.398438 14.996094 2.402344 C 8.058594 2.402344 2.410156 8.035156 2.410156 14.953125 C 2.410156 18.792969 4.148438 22.234375 6.882812 24.539062 L 5.4375 26.46875 C 2.117188 23.722656 0 19.578125 0 14.953125 C 0 6.707031 6.726562 0 14.996094 0 C 17.953125 -0.00390625 20.84375 0.871094 23.304688 2.507812 L 25.128906 1.152344 L 12.898438 17.414062 L 8.765625 13.308594 Z M 21.226562 4.050781 " />
  </g>
</svg>